#!OML:ASF C:\ViconDB\ViconDB\414\Spring2016\041811\Spring2016.ASF
:FULLY-SPECIFIED
:DEGREES
318
root 8.28713 17.5647 -29.9335 -181.689 0.0307921 -174.809
lowerback -3.71354 3.36368 -3.96191
upperback -0.754337 4.59865 -1.07816
thorax 1.07769 2.26416 1.30559
lowerneck -8.67147 7.93864 -2.93159
upperneck 35.7729 -2.13429 24.7809
head 13.9096 -0.555827 10.3222
rclavicle 3.86636e-014 -2.70347e-014
rhumerus -91.2425 34.6407 -126.767
rradius 82.7976
rwrist 20.201
rhand -47.2573 -5.31083
rfingers 7.12502
rthumb -19.9546 -34.3063
lclavicle 3.86636e-014 -2.70347e-014
lhumerus -81.0723 -42.5915 113.946
lradius 81.9115
lwrist -28.7158
lhand -36.2245 -5.95801
lfingers 7.12502
lthumb -9.32647 23.8157
rfemur 313.39 150.622 -351.987
rtibia 29.5271
rfoot -407.537 -69.9471
rtoes -17.8677
lfemur -34.4282 -16.9254 -11.6476
ltibia 41.3711
lfoot -7.55248 -2.11287
ltoes -8.06033
319
root 8.23902 17.5843 -30.1203 -181.796 0.296122 -175.142
lowerback -3.29978 3.22808 -3.69653
upperback -0.863388 4.49488 -1.16578
thorax 0.770272 2.26637 1.03612
lowerneck -8.68026 8.16248 -2.57738
upperneck 36.2796 -1.75621 24.1217
head 14.0608 -0.394354 10.0429
rclavicle 4.49253e-014 -4.77083e-015
rhumerus -91.008 34.4491 -126.477
rradius 82.9444
rwrist 20.7856
rhand -47.0397 -5.14039
rfingers 7.12502
rthumb -19.7454 -34.1575
lclavicle 4.49253e-014 -4.77083e-015
lhumerus -81.8523 -42.7897 114.311
lradius 81.956
lwrist -28.8146
lhand -36.3629 -5.76801
lfingers 7.12502
lthumb -9.45993 23.9997
rfemur 311.856 151.443 -352.516
rtibia 31.7837
rfoot -409.575 -73.7345
rtoes -21.0326
lfemur -33.6237 -16.3983 -12.4863
ltibia 41.738
lfoot -8.559 -2.50407
ltoes -7.5823
320
root 8.18999 17.6161 -30.3012 -181.756 0.542502 -175.408
lowerback -3.04533 3.15037 -3.38326
upperback -0.947964 4.36628 -1.17963
thorax 0.571382 2.20603 0.82575
lowerneck -8.81576 8.3597 -2.47123
upperneck 36.7349 -1.39147 23.6365
head 14.2208 -0.248748 9.8988
rclavicle -1.8487e-014 -1.27222e-014
rhumerus -90.671 34.3693 -126.063
rradius 83.1729
rwrist 21.072
rhand -46.725 -4.94372
rfingers 7.12502
rthumb -19.4429 -33.9916
lclavicle -1.8487e-014 -1.27222e-014
lhumerus -82.6293 -43.0709 114.86
lradius 82.0225
lwrist -28.5894
lhand -36.5326 -5.37869
lfingers 7.12502
lthumb -9.62372 24.3815
rfemur 310.243 152.113 -352.921
rtibia 34.6376
rfoot -414.238 -77.5351
rtoes -24.643
lfemur -32.9098 -16.127 -13.1292
ltibia 41.9034
lfoot -9.44001 -2.7499
ltoes -7.92868
321
root 8.14873 17.6388 -30.4583 -181.727 0.741554 -175.897
lowerback -2.5133 3.01133 -3.35749
upperback -1.07488 4.156 -1.24273
thorax 0.158483 2.10949 0.704288
lowerneck -8.96476 8.6173 -2.29424
upperneck 37.1909 -0.908857 23.0897
head 14.3662 -0.0431995 9.72504
rclavicle 4.01545e-014 -5.88403e-014
rhumerus -90.6005 34.51 -125.932
rradius 83.6109
rwrist 20.9782
rhand -45.9391 -4.48796
rfingers 7.12502
rthumb -18.6871 -33.6104
lclavicle 4.01545e-014 -5.88403e-014
lhumerus -83.3303 -43.2476 115.317
lradius 82.0411
lwrist -27.9811
lhand -36.4837 -5.23195
lfingers 7.12502
lthumb -9.57649 24.5304
rfemur 308.613 152.8 -353.371
rtibia 37.8181
rfoot -423.809 -81.7479
rtoes -27.4817
lfemur -32.2794 -15.6514 -13.9799
ltibia 41.9651
lfoot -10.1406 -3.14393
ltoes -8.04488
322
root 8.09769 17.6757 -30.6261 -181.428 0.979011 -176.185
lowerback -2.43124 2.82924 -3.18002
upperback -1.2154 3.90171 -1.185
thorax -0.0144245 1.9858 0.65042
lowerneck -9.15082 8.90184 -2.00028
upperneck 37.6434 -0.30332 22.3533
head 14.5048 0.226617 9.45685
rclavicle -3.79679e-014 7.95139e-015
rhumerus -90.5428 34.8211 -125.837
rradius 83.851
rwrist 21.259
rhand -45.7136 -4.14132
rfingers 7.12502
rthumb -18.4702 -33.2844
lclavicle -3.79679e-014 7.95139e-015
lhumerus -84.0618 -43.4126 115.868
lradius 81.9502
lwrist -27.5467
lhand -36.6288 -4.83935
lfingers 7.12502
lthumb -9.71648 24.9165
rfemur 307.324 153.284 -353.533
rtibia 41.1326
rfoot -449.387 -85.4337
rtoes -29.0983
lfemur -31.8205 -15.2547 -14.5282
ltibia 41.847
lfoot -10.7538 -3.39394
ltoes -7.92241
323
root 8.04717 17.7214 -30.809 -180.968 1.37239 -175.723
lowerback -2.73003 2.68889 -2.20123
upperback -1.34957 3.69115 -0.931495
thorax 0.0675103 1.8739 0.37469
lowerneck -9.39848 9.1836 -1.83523
upperneck 38.0598 0.274153 21.7777
head 14.6514 0.476601 9.28904
rclavicle -7.55382e-015 -3.65764e-014
rhumerus -90.4978 35.165 -125.782
rradius 84.0984
rwrist 21.438
rhand -45.3367 -3.71296
rfingers 7.12502
rthumb -18.1076 -32.8901
lclavicle -7.55382e-015 -3.65764e-014
lhumerus -84.9327 -43.5455 116.501
lradius 81.8556
lwrist -26.98
lhand -36.7482 -4.52995
lfingers 7.12502
lthumb -9.83174 25.2205
rfemur 233.611 206.11 -532.652
rtibia -44.5322
rfoot -505.844 -93.7625
rtoes -31.3982
lfemur -31.3174 -14.6383 -14.2162
ltibia 41.5051
lfoot -11.5761 -3.81283
ltoes -8.24862
324
root 7.97968 17.7714 -31.0531 -180.693 1.55173 -177.137
lowerback -3.61392 2.4784 -2.90833
upperback -1.22062 3.48171 -1.17412
thorax 0.671299 1.76907 0.563537
lowerneck -9.60288 9.44056 -1.63818
upperneck 38.3816 0.954243 21.0262
head 14.7307 0.773107 9.03237
rclavicle -3.55825e-014 2.38542e-015
rhumerus -90.2685 35.3816 -125.467
rradius 84.2559
rwrist 21.846
rhand -45.0756 -3.2916
rfingers 7.12502
rthumb -17.8564 -32.4918
lclavicle -3.55825e-014 2.38542e-015
lhumerus -85.6613 -43.7688 117.267
lradius 81.5403
lwrist -26.6894
lhand -37.1256 -4.05495
lfingers 7.12502
lthumb -10.1959 25.678
rfemur 235.213 206.428 -534.856
rtibia -47.8862
rfoot -542.259 -95.3622
rtoes -30.1678
lfemur -30.0865 -14.5905 -16.3205
ltibia 40.8293
lfoot -12.4544 -3.7499
ltoes -8.94568
325
root 7.93294 17.8191 -31.2514 -180.76 1.62998 -179.17
lowerback -3.50866 2.24094 -4.40432
upperback -1.17938 3.24779 -1.61713
thorax 0.605116 1.66642 0.928395
lowerneck -9.78364 9.69105 -1.39673
upperneck 38.6594 1.55157 20.3915
head 14.8126 1.03764 8.80933
rclavicle -1.47101e-014 7.95139e-016
rhumerus -90.0706 35.446 -125.333
rradius 84.3623
rwrist 22.508
rhand -44.9222 -3.40375
rfingers 7.12502
rthumb -17.7088 -32.6174
lclavicle -1.47101e-014 7.95139e-016
lhumerus -86.8312 -44.1656 118.305
lradius 81.4325
lwrist -25.5047
lhand -37.4092 -3.84562
lfingers 7.12502
lthumb -10.4694 25.8737
rfemur 236.585 206.537 -537.39
rtibia -51.2255
rfoot -553.461 -96.7988
rtoes -30.1222
lfemur -28.609 -14.5727 -19.0029
ltibia 39.8985
lfoot -13.0899 -3.82715
ltoes -8.44728
